<svg preserveAspectRatio="none" xmlns="http://www.w3.org/2000/svg" viewBox="0 0 403.53312 76.19171"><defs><style>.a{fill:#ffffff;}.b{fill:none;stroke:#ffffff;stroke-linecap:round;stroke-linejoin:round;stroke-width:10.56721px;}</style></defs><path class="a" d="M26.46,28.10186q3.42041,3.75,3.41992,11.30957,0,7.62012-4.5,12.4795A23.88859,23.88859,0,0,1,14.09961,58.6712l-2.46.71973a1.15919,1.15919,0,0,1-1.10938-.41993,1.703,1.703,0,0,1-.51074-1.19921V51.71124a1.70916,1.70916,0,0,1,.4209-1.10938,2.961,2.961,0,0,1,1.0791-.81054l1.9209-.78028a9.67567,9.67567,0,0,0,4.34961-3.21,10.03835,10.03835,0,0,0,1.58984-6.08984q0-3.77929-1.32031-5.2793-1.31982-1.5-4.91992-1.5H11.58008l-8.04-.06055a1.43841,1.43841,0,0,1-1.5-1.5V17.511a1.40977,1.40977,0,0,1,.45019-1.0791A1.48873,1.48873,0,0,1,3.54,16.011h6.47949a1.43985,1.43985,0,0,1,1.5,1.5v6.84082h3.7207Q23.03906,24.35186,26.46,28.10186Z"/><path class="a" d="M34.29,31.13116a1.20478,1.20478,0,0,1-.33008-.83984,1.76442,1.76442,0,0,1,.12012-.66016L38.7002,17.69171a3.6486,3.6486,0,0,1,.87011-1.23047,2.05649,2.05649,0,0,1,1.41016-.4502h4.37988a1.05457,1.05457,0,0,1,.87012.4209,1.27627,1.27627,0,0,1,.26953.959l-1.85938,12a3.08918,3.08918,0,0,1-.7207,1.5,1.91346,1.91346,0,0,1-1.5.60058H35.10059A1.05467,1.05467,0,0,1,34.29,31.13116Zm13.56055,0a1.20044,1.20044,0,0,1-.33008-.83984,1.74538,1.74538,0,0,1,.12011-.66016l4.61915-11.93945a3.66219,3.66219,0,0,1,.87011-1.23047A2.05991,2.05991,0,0,1,54.54,16.011h4.37988a1.052,1.052,0,0,1,.87012.4209,1.2728,1.2728,0,0,1,.27051.959l-1.86035,12a3.09675,3.09675,0,0,1-.71973,1.5,1.91627,1.91627,0,0,1-1.5.60058H48.66016A1.05263,1.05263,0,0,1,47.85059,31.13116Z"/><path class="a" d="M65.84961,43.971a1.40893,1.40893,0,0,1-.4502-1.08007V25.85186a1.41183,1.41183,0,0,1,.4502-1.08007A1.56654,1.56654,0,0,1,66.96,24.35186h7.5a1.43842,1.43842,0,0,1,1.5,1.5V42.89093A1.4959,1.4959,0,0,1,75.54,43.94171a1.41257,1.41257,0,0,1-1.08008.44922h-7.5A1.55812,1.55812,0,0,1,65.84961,43.971Z"/><path class="a" d="M86.669,55.31085Q82.49707,51.41144,82.499,44.27179V25.85186a1.40845,1.40845,0,0,1,.4502-1.08007,1.49192,1.49192,0,0,1,1.0498-.41993h6.24024a1.56746,1.56746,0,0,1,1.10937.41993,1.41183,1.41183,0,0,1,.4502,1.08007V43.971A6.19563,6.19563,0,0,0,93.749,48.98175a8.14813,8.14813,0,0,0,5.42969,1.64941q6.71923,0,6.78027-6.41992a13.49063,13.49063,0,0,0,.03028-1.62012c-.02149-.67969-.03028-1.20019-.03028-1.55957V39.71124a10.81663,10.81663,0,0,0-1.14062-5.25,3.42629,3.42629,0,0,0-3.11914-1.83008,7.12181,7.12181,0,0,0-1.77051.24023,5.83216,5.83216,0,0,0-1.53027.59961,1.86319,1.86319,0,0,1-.54.12012,1.26636,1.26636,0,0,1-.92969-.38965,1.33775,1.33775,0,0,1-.38965-.99023V27.471a2.35838,2.35838,0,0,1,1.13965-2.21972,11.32877,11.32877,0,0,1,5.75977-1.13965q6.60058,0,9.45019,3.44922,2.84913,3.45117,2.96973,10.65039V44.511q-.66065,14.70117-16.67969,14.7002Q90.83789,59.21124,86.669,55.31085Z"/><path class="a" d="M149.78809,58.19171a1.41041,1.41041,0,0,1-.4502-1.08008V39.35186q0-6.84081-6.78027-6.84082h-9.11914a1.53686,1.53686,0,0,1-1.5-1.5V25.85186a1.411,1.411,0,0,1,.44922-1.08007,1.49591,1.49591,0,0,1,1.05078-.41993H142.918q8.33936,0,12.45019,3.41993,4.10889,3.41894,4.11036,11.21972V57.11163a1.48869,1.48869,0,0,1-.4209,1.0498,1.41121,1.41121,0,0,1-1.0791.4502h-7.08008A1.56233,1.56233,0,0,1,149.78809,58.19171Z"/><path class="a" d="M166.708,58.19171a1.41041,1.41041,0,0,1-.4502-1.08008V25.85186a1.41183,1.41183,0,0,1,.4502-1.08007,1.56581,1.56581,0,0,1,1.10937-.41993h7.5a1.43842,1.43842,0,0,1,1.5,1.5V57.11163a1.49191,1.49191,0,0,1-.41992,1.0498,1.41185,1.41185,0,0,1-1.08008.4502h-7.5A1.5616,1.5616,0,0,1,166.708,58.19171Z"/><path class="a" d="M211.49707,24.77179a1.46451,1.46451,0,0,1,.41992,1.08007V31.011a1.492,1.492,0,0,1-.41992,1.04981,1.40847,1.40847,0,0,1-1.08008.45019h-2.75976a9.17659,9.17659,0,0,0-1.10938,3.06055,21.40092,21.40092,0,0,0-.39062,4.25977v17.46a1.11949,1.11949,0,0,1-.56934.92968,2.05012,2.05012,0,0,1-1.1709.39063h-7.01953a1.23986,1.23986,0,0,1-1.32031-1.32031V39.1712q0-4.85889,1.20019-6.66016H183.59766a1.53866,1.53866,0,0,1-1.5-1.5V25.85186a1.40844,1.40844,0,0,1,.45019-1.08007,1.492,1.492,0,0,1,1.04981-.41993H210.417A1.46454,1.46454,0,0,1,211.49707,24.77179Z"/><path class="a" d="M247.61719,28.011q3.83936,3.66064,3.83984,10.98047V57.11163a1.49191,1.49191,0,0,1-.41992,1.0498,1.41331,1.41331,0,0,1-1.08008.4502H233.57715a1.53868,1.53868,0,0,1-1.5-1.5V51.95147a1.40993,1.40993,0,0,1,.45019-1.08008,1.492,1.492,0,0,1,1.04981-.41992h7.74023V39.471a7.21514,7.21514,0,0,0-1.5-4.85937,4.90876,4.90876,0,0,0-3.90039-1.74024H231.2373l-5.10058,24.17969a1.81894,1.81894,0,0,1-.47949,1.11035,1.41333,1.41333,0,0,1-1.08008.4502h-6.90039a1.50673,1.50673,0,0,1-1.10938-.4502,1.17661,1.17661,0,0,1-.33008-1.11035l5.87989-24.11914h-3.96a1.409,1.409,0,0,1-1.08008-.45019,1.564,1.564,0,0,1-.41992-1.11036V25.85186a1.411,1.411,0,0,1,.44922-1.08007,1.49591,1.49591,0,0,1,1.05078-.41993H237.417Q243.77588,24.35186,247.61719,28.011Z"/><path class="b" d="M353.55907,42.43388l10.34814,10.20683a20.22417,20.22417,0,0,0,29.11-.66669c7.43616-8.05957,6.80266-20.69051-.98759-28.40835l0,0a12.83308,12.83308,0,0,0-18.14384.08l-5.17266,5.21577"/><path class="b" d="M324.416,28.14886,321.846,25.57165a19.252,19.252,0,1,0,.12711,27.22565L369.04514,5.28361"/><line class="b" x1="344.26053" y1="53.35241" x2="339.08787" y2="58.56818"/></svg>